<svg width="45" height="46" viewBox="0 0 45 46" fill="none" xmlns="http://www.w3.org/2000/svg">
<path d="M22.5 3.625C11.736 3.625 3 12.361 3 23.125C3 33.889 11.736 42.625 22.5 42.625C33.264 42.625 42 33.889 42 23.125C42 12.361 33.264 3.625 22.5 3.625ZM31.548 16.885C31.2555 19.966 29.988 27.454 29.3445 30.9055C29.0715 32.368 28.5255 32.8555 28.0185 32.914C26.8875 33.0115 26.0295 32.173 24.9375 31.4515C23.2215 30.3205 22.2465 29.6185 20.589 28.5265C18.6585 27.259 19.9065 26.557 21.018 25.426C21.3105 25.1335 26.3025 20.59 26.4 20.1805C26.4135 20.1185 26.4117 20.0541 26.3948 19.9929C26.3778 19.9317 26.3461 19.8757 26.3025 19.8295C26.1855 19.732 26.0295 19.771 25.893 19.7905C25.7175 19.8295 22.9875 21.643 17.664 25.231C16.884 25.7575 16.182 26.0305 15.558 26.011C14.856 25.9915 13.53 25.621 12.5355 25.2895C11.307 24.8995 10.3515 24.685 10.4295 24.0025C10.4685 23.6515 10.956 23.3005 11.8725 22.93C17.5665 20.4535 21.3495 18.8155 23.241 18.0355C28.662 15.7735 29.7735 15.3835 30.5145 15.3835C30.6705 15.3835 31.041 15.4225 31.275 15.6175C31.47 15.7735 31.5285 15.988 31.548 16.144C31.5285 16.261 31.5675 16.612 31.548 16.885Z" fill="black"/>
</svg>
