<svg width="45" height="46" viewBox="0 0 45 46" fill="none" xmlns="http://www.w3.org/2000/svg">
<g clip-path="url(#clip0_10_316)">
<path fill-rule="evenodd" clip-rule="evenodd" d="M11.6667 3.625C9.36812 3.625 7.16372 4.53809 5.53841 6.16341C3.91309 7.78872 3 9.99312 3 12.2917V33.9583C3 36.2569 3.91309 38.4613 5.53841 40.0866C7.16372 41.7119 9.36812 42.625 11.6667 42.625H33.3333C35.6319 42.625 37.8363 41.7119 39.4616 40.0866C41.0869 38.4613 42 36.2569 42 33.9583V12.2917C42 9.99312 41.0869 7.78872 39.4616 6.16341C37.8363 4.53809 35.6319 3.625 33.3333 3.625H11.6667ZM34.0527 18.9108C34.3716 18.4327 34.4875 17.8475 34.375 17.284C34.2624 16.7204 33.9306 16.2246 33.4525 15.9057C32.9744 15.5867 32.3892 15.4708 31.8256 15.5834C31.262 15.6959 30.7663 16.0277 30.4473 16.5058C29.6803 17.5242 28.8765 18.4992 27.9362 19.3658C26.8463 20.3712 25.7435 21.1252 24.6688 21.5715L24.6515 17.4548C24.5894 16.9278 24.3361 16.4419 23.9395 16.0892C23.5429 15.7366 23.0307 15.5417 22.5 15.5417C21.3257 15.6088 20.3333 16.4755 20.3333 17.7083V27.1832C16.1127 26.0132 13.8333 21.9182 13.8333 17.7083C13.8333 17.1337 13.6051 16.5826 13.1987 16.1763C12.7924 15.7699 12.2413 15.5417 11.6667 15.5417C11.092 15.5417 10.5409 15.7699 10.1346 16.1763C9.72827 16.5826 9.5 17.1337 9.5 17.7083C9.5 25.5777 14.9383 31.7917 22.5 31.7917C23.0746 31.7917 23.6257 31.5634 24.0321 31.1571C24.4384 30.7507 24.6667 30.1996 24.6667 29.625V26.2385C27.5527 26.4682 30.352 28.507 31.3963 30.5935C31.518 30.8569 31.6914 31.0932 31.9061 31.2884C32.1209 31.4835 32.3726 31.6335 32.6464 31.7295C32.9203 31.8255 33.2106 31.8656 33.5002 31.8472C33.7898 31.8289 34.0727 31.7526 34.3322 31.6228C34.5918 31.493 34.8226 31.3125 35.011 31.0918C35.1994 30.8711 35.3416 30.6149 35.4291 30.3382C35.5166 30.0615 35.5476 29.7701 35.5204 29.4812C35.4931 29.1924 35.4081 28.9119 35.2703 28.6565C34.2347 26.583 32.302 24.6438 29.923 23.3785C30.2437 23.1163 30.5622 22.839 30.8763 22.5508C32.07 21.4622 33.1357 20.241 34.0527 18.9108Z" fill="black"/>
</g>
<defs>
<clipPath id="clip0_10_316">
<rect width="45" height="45" fill="white" transform="translate(0 0.625)"/>
</clipPath>
</defs>
</svg>
