<svg width="45" height="46" viewBox="0 0 45 46" fill="none" xmlns="http://www.w3.org/2000/svg">
<path fill-rule="evenodd" clip-rule="evenodd" d="M10.8964 3.15454C8.67712 3.15454 6.54867 4.03594 4.97908 5.60492C3.40949 7.1739 2.52728 9.30202 2.52643 11.5213V33.8413C2.52643 36.0612 3.40826 38.1901 4.97794 39.7598C6.54762 41.3295 8.67657 42.2113 10.8964 42.2113H33.2164C35.4357 42.2105 37.5638 41.3283 39.1328 39.7587C40.7018 38.1891 41.5832 36.0606 41.5832 33.8413V11.5213C41.5824 9.30258 40.7006 7.17495 39.1317 5.60606C37.5628 4.03716 35.4352 3.15539 33.2164 3.15454H10.8964ZM35.6239 11.5342C35.6239 12.1735 35.3699 12.7867 34.9178 13.2388C34.4657 13.6909 33.8526 13.9449 33.2132 13.9449C32.5739 13.9449 31.9607 13.6909 31.5086 13.2388C31.0565 12.7867 30.8025 12.1735 30.8025 11.5342C30.8025 10.8948 31.0565 10.2816 31.5086 9.82955C31.9607 9.37745 32.5739 9.12347 33.2132 9.12347C33.8526 9.12347 34.4657 9.37745 34.9178 9.82955C35.3699 10.2816 35.6239 10.8948 35.6239 11.5342ZM22.0596 15.9956C20.2865 15.9956 18.5859 16.7 17.3321 17.9538C16.0783 19.2076 15.3739 20.9082 15.3739 22.6813C15.3739 24.4545 16.0783 26.155 17.3321 27.4088C18.5859 28.6627 20.2865 29.367 22.0596 29.367C23.8328 29.367 25.5333 28.6627 26.7872 27.4088C28.041 26.155 28.7454 24.4545 28.7454 22.6813C28.7454 20.9082 28.041 19.2076 26.7872 17.9538C25.5333 16.7 23.8328 15.9956 22.0596 15.9956ZM12.1564 22.6813C12.1564 20.0557 13.1995 17.5376 15.0561 15.681C16.9127 13.8244 19.4308 12.7813 22.0564 12.7813C24.6821 12.7813 27.2002 13.8244 29.0568 15.681C30.9134 17.5376 31.9564 20.0557 31.9564 22.6813C31.9564 25.307 30.9134 27.8251 29.0568 29.6817C27.2002 31.5383 24.6821 32.5813 22.0564 32.5813C19.4308 32.5813 16.9127 31.5383 15.0561 29.6817C13.1995 27.8251 12.1564 25.307 12.1564 22.6813Z" fill="black"/>
</svg>
