<?xml version="1.0" encoding="UTF-8"?><svg id="_Слой_2" xmlns="http://www.w3.org/2000/svg" viewBox="0 0 572.64 597.79"><defs><style>.cls-1{fill:none;stroke:#1d1d1b;stroke-miterlimit:10;stroke-width:14px;}.cls-2{font-family:LavishlyYours-Regular, 'Lavishly Yours';font-size:100px;}.cls-2,.cls-3{fill:#1d1d1b;}</style></defs><g id="_Слой_1-2"><g><circle class="cls-1" cx="157" cy="305.68" r="150"/><circle class="cls-1" cx="415.64" cy="305.68" r="150"/><g><path class="cls-3" d="M286.35,0c0,54.28-44,98.28-98.28,98.28,54.28,0,98.28,44,98.28,98.28,0-54.28,44-98.28,98.28-98.28-54.28,0-98.28-44-98.28-98.28Zm0,171.28c0-40.31-32.68-72.99-72.99-72.99,40.31,0,72.99-32.68,72.99-72.99,0,40.31,32.68,72.99,72.99,72.99-40.31,0-72.99,32.68-72.99,72.99Z"/><path class="cls-3" d="M426.1,0c0,38.66-31.34,70-70,70,38.66,0,70,31.34,70,70,0-38.66,31.34-70,70-70-38.66,0-70-31.34-70-70Zm0,121.99c0-28.71-23.27-51.99-51.99-51.99,28.71,0,51.99-23.27,51.99-51.99,0,28.71,23.27,51.99,51.99,51.99-28.71,0-51.99,23.27-51.99,51.99Z"/><path class="cls-3" d="M146.6,0c0,38.66-31.34,70-70,70,38.66,0,70,31.34,70,70,0-38.66,31.34-70,70-70-38.66,0-70-31.34-70-70Zm0,121.99c0-28.71-23.27-51.99-51.99-51.99,28.71,0,51.99-23.27,51.99-51.99,0,28.71,23.27,51.99,51.99,51.99-28.71,0-51.99,23.27-51.99,51.99Z"/></g><g><path class="cls-3" d="M429.26,271.92c-1.25,.6-2.25,1.5-2.98,2.57-1.29-.1-2.62,.13-3.87,.74-3.78,1.83-5.36,6.38-3.53,10.16,.33,.69,.72,1.18,1.29,1.88,1.4,1.71,2.94,2.74,4,3.33,.54,.35,1.28,.82,2.19,1.34,4.96,2.82,8.03,4.56,10.16,3.53,2.19-1.06,2.73-4.71,3.53-10.16,.15-1,.23-1.84,.28-2.46,.15-1.22,.24-3.08-.24-5.24-.22-.96-.36-1.52-.68-2.17-1.83-3.78-6.38-5.36-10.16-3.53Zm9.23,4.34c.28,.58,.41,1.07,.6,1.92,.43,1.91,.35,3.55,.21,4.63-.05,.54-.12,1.29-.25,2.17-.71,4.81-1.19,8.04-3.12,8.98-1.88,.91-4.59-.63-8.98-3.12-.81-.46-1.47-.87-1.94-1.18-.94-.53-2.3-1.44-3.53-2.95-.5-.62-.84-1.05-1.14-1.66-1.62-3.34-.22-7.36,3.12-8.98,1.1-.53,2.28-.74,3.42-.65,.64-.95,1.53-1.74,2.63-2.28,3.34-1.62,7.36-.22,8.98,3.12Z"/><path class="cls-3" d="M419.45,294.86c-1.33,.4-2.47,1.12-3.35,2.06-1.26-.3-2.61-.29-3.94,.11-4.02,1.2-6.31,5.44-5.11,9.46,.22,.73,.52,1.28,.97,2.06,1.11,1.91,2.46,3.18,3.41,3.93,.47,.43,1.13,1.02,1.95,1.67,4.44,3.58,7.19,5.79,9.46,5.11,2.33-.69,3.45-4.21,5.11-9.46,.31-.96,.52-1.78,.67-2.38,.35-1.18,.73-3,.6-5.21-.06-.98-.11-1.56-.32-2.25-1.2-4.02-5.44-6.31-9.46-5.11Zm8.42,5.76c.18,.61,.23,1.12,.28,1.99,.12,1.95-.22,3.56-.53,4.6-.13,.53-.33,1.25-.6,2.1-1.47,4.64-2.46,7.75-4.52,8.36-2.01,.6-4.43-1.36-8.36-4.52-.72-.58-1.31-1.1-1.72-1.48-.84-.67-2.04-1.79-3.01-3.47-.4-.69-.66-1.17-.86-1.82-1.06-3.56,.96-7.3,4.52-8.36,1.17-.35,2.37-.36,3.48-.1,.78-.83,1.79-1.47,2.96-1.82,3.56-1.06,7.3,.96,8.36,4.52Z"/><path class="cls-3" d="M405.45,317.14c-1.38,.08-2.66,.53-3.74,1.24-1.15-.58-2.47-.88-3.85-.8-4.19,.24-7.4,3.83-7.16,8.03,.04,.76,.21,1.37,.47,2.23,.64,2.11,1.66,3.66,2.41,4.61,.36,.53,.87,1.25,1.51,2.08,3.5,4.51,5.66,7.29,8.03,7.16,2.43-.14,4.33-3.31,7.16-8.03,.52-.87,.92-1.61,1.2-2.16,.61-1.07,1.41-2.75,1.79-4.93,.17-.97,.25-1.54,.21-2.26-.24-4.19-3.83-7.4-8.03-7.16Zm6.86,7.55c.04,.64-.04,1.14-.18,2-.34,1.93-1.04,3.41-1.58,4.36-.25,.48-.61,1.15-1.06,1.91-2.5,4.17-4.18,6.97-6.33,7.09-2.09,.12-4-2.34-7.09-6.33-.57-.73-1.02-1.37-1.34-1.84-.66-.84-1.57-2.21-2.13-4.08-.23-.76-.37-1.3-.41-1.97-.21-3.71,2.62-6.88,6.33-7.09,1.22-.07,2.39,.19,3.41,.71,.95-.63,2.08-1.02,3.3-1.09,3.71-.21,6.88,2.62,7.09,6.33Z"/><path class="cls-3" d="M386.94,335.26c-1.37-.19-2.71,0-3.91,.49-1.02-.8-2.25-1.34-3.63-1.53-4.16-.58-8,2.33-8.58,6.49-.11,.76-.06,1.38,.03,2.28,.22,2.2,.92,3.91,1.47,4.99,.25,.59,.61,1.4,1.08,2.33,2.56,5.1,4.14,8.25,6.49,8.58,2.41,.34,4.89-2.41,8.58-6.49,.68-.75,1.22-1.4,1.6-1.89,.81-.93,1.91-2.43,2.71-4.49,.35-.92,.54-1.46,.64-2.18,.58-4.16-2.33-8-6.49-8.58Zm5.27,8.74c-.09,.63-.26,1.12-.57,1.93-.7,1.83-1.68,3.15-2.39,3.97-.34,.43-.82,1.01-1.41,1.67-3.26,3.61-5.45,6.03-7.58,5.73-2.07-.29-3.47-3.07-5.73-7.58-.42-.83-.73-1.54-.96-2.06-.49-.96-1.11-2.47-1.3-4.41-.08-.79-.12-1.34-.02-2.01,.51-3.68,3.9-6.24,7.58-5.73,1.21,.17,2.3,.65,3.2,1.35,1.06-.43,2.24-.6,3.45-.43,3.68,.51,6.24,3.9,5.73,7.58Z"/><path class="cls-3" d="M456.88,313.98c4.13-.78,6.84-4.75,6.06-8.88-.26-1.36-.86-2.57-1.71-3.55,.43-1.22,.55-2.56,.3-3.93-.78-4.13-4.75-6.84-8.88-6.06-.75,.14-1.33,.38-2.15,.75-2.01,.91-3.41,2.12-4.26,2.99-.48,.43-1.13,1.02-1.87,1.77-4.02,4.05-6.5,6.55-6.06,8.88,.45,2.39,3.84,3.87,8.88,6.06,.92,.4,1.72,.71,2.3,.92,1.14,.47,2.91,1.04,5.12,1.14,.98,.04,1.56,.05,2.27-.08Z"/><path class="cls-3" d="M439.25,341.85c4.2-.17,7.46-3.71,7.29-7.91-.06-1.38-.48-2.67-1.17-3.76,.6-1.14,.92-2.46,.86-3.84-.17-4.2-3.71-7.46-7.91-7.29-.77,.03-1.37,.19-2.24,.43-2.12,.6-3.68,1.6-4.65,2.34-.54,.35-1.26,.85-2.1,1.48-4.56,3.43-7.38,5.54-7.29,7.91,.1,2.43,3.24,4.38,7.91,7.29,.86,.53,1.6,.95,2.14,1.24,1.06,.63,2.73,1.45,4.9,1.87,.97,.18,1.54,.28,2.26,.25Z"/><path class="cls-3" d="M439.1,341.68c4.2-.17,7.46-3.71,7.29-7.91-.06-1.38-.48-2.67-1.17-3.76,.6-1.14,.92-2.46,.86-3.84-.17-4.2-3.71-7.46-7.91-7.29-.77,.03-1.37,.19-2.24,.43-2.12,.6-3.68,1.6-4.65,2.34-.54,.35-1.26,.85-2.1,1.48-4.56,3.43-7.38,5.54-7.29,7.91,.1,2.43,3.24,4.38,7.91,7.29,.86,.53,1.6,.95,2.14,1.24,1.06,.63,2.73,1.45,4.9,1.87,.97,.18,1.54,.28,2.26,.25Z"/><path class="cls-3" d="M415.53,366.11c4.15,.67,8.05-2.16,8.71-6.3,.22-1.37,.06-2.71-.4-3.92,.82-1,1.39-2.22,1.61-3.59,.67-4.15-2.16-8.05-6.3-8.71-.76-.12-1.38-.09-2.28-.02-2.2,.17-3.93,.84-5.02,1.37-.59,.24-1.41,.58-2.35,1.03-5.15,2.45-8.34,3.97-8.71,6.3-.39,2.4,2.3,4.94,6.3,8.71,.73,.69,1.38,1.25,1.85,1.64,.92,.83,2.38,1.96,4.43,2.8,.91,.37,1.45,.57,2.17,.69Z"/><path class="cls-3" d="M387.56,385.13c3.93,1.48,8.32-.5,9.8-4.43,.49-1.3,.6-2.64,.39-3.92,1-.82,1.81-1.9,2.29-3.2,1.48-3.93-.5-8.32-4.43-9.8-.72-.27-1.33-.37-2.23-.48-2.19-.27-4.02,.04-5.19,.34-.63,.11-1.5,.29-2.51,.54-5.54,1.37-8.96,2.22-9.8,4.43-.86,2.27,1.27,5.3,4.43,9.8,.58,.83,1.1,1.5,1.49,1.98,.73,.99,1.94,2.4,3.78,3.63,.82,.55,1.31,.85,1.98,1.11Z"/><path class="cls-3" d="M362.48,349.39c-1.34-.36-2.69-.34-3.94,0-.91-.92-2.07-1.61-3.4-1.98-4.05-1.1-8.23,1.3-9.32,5.36-.2,.74-.23,1.36-.26,2.26-.06,2.21,.42,4,.83,5.14,.18,.62,.43,1.46,.78,2.45,1.9,5.38,3.07,8.7,5.36,9.32,2.35,.64,5.15-1.77,9.32-5.36,.77-.66,1.38-1.24,1.82-1.67,.92-.82,2.2-2.17,3.25-4.12,.47-.87,.72-1.38,.91-2.08,1.09-4.05-1.3-8.23-5.36-9.32Zm4.13,9.33c-.17,.62-.39,1.07-.81,1.84-.93,1.72-2.06,2.91-2.87,3.64-.39,.38-.94,.9-1.61,1.48-3.69,3.17-6.17,5.3-8.24,4.74-2.02-.55-3.06-3.48-4.74-8.24-.31-.87-.53-1.62-.69-2.16-.36-1.01-.79-2.59-.74-4.54,.02-.8,.05-1.35,.23-2,.97-3.58,4.66-5.7,8.24-4.74,1.18,.32,2.2,.94,3.01,1.75,1.1-.29,2.3-.31,3.48,0,3.58,.97,5.7,4.66,4.74,8.24Z"/><path class="cls-3" d="M355.17,398.74c3.51,2.31,8.22,1.33,10.53-2.18,.76-1.16,1.16-2.45,1.24-3.74,1.16-.58,2.18-1.46,2.94-2.62,2.31-3.51,1.33-8.22-2.18-10.53-.64-.42-1.22-.65-2.07-.95-2.08-.75-3.93-.85-5.14-.81-.64-.03-1.52-.05-2.57-.02-5.71,.12-9.23,.2-10.53,2.18-1.34,2.03,.07,5.45,2.18,10.53,.39,.93,.75,1.7,1.02,2.26,.5,1.13,1.37,2.77,2.89,4.37,.68,.71,1.09,1.12,1.69,1.52Z"/><path class="cls-3" d="M337.13,358.33c-1.26-.57-2.6-.77-3.88-.64-.75-1.05-1.78-1.93-3.04-2.5-3.82-1.74-8.33-.04-10.07,3.78-.32,.7-.45,1.31-.62,2.19-.42,2.17-.23,4.01,0,5.21,.07,.64,.19,1.51,.37,2.54,1,5.62,1.63,9.09,3.78,10.07,2.21,1.01,5.37-.92,10.07-3.78,.86-.53,1.57-1,2.07-1.35,1.04-.67,2.52-1.78,3.87-3.54,.6-.78,.94-1.25,1.24-1.91,1.74-3.82,.04-8.33-3.78-10.07Zm2.57,9.87c-.26,.58-.56,1-1.09,1.68-1.19,1.55-2.5,2.54-3.42,3.13-.45,.31-1.07,.73-1.83,1.2-4.15,2.53-6.94,4.23-8.9,3.34-1.9-.87-2.45-3.93-3.34-8.9-.16-.91-.27-1.69-.33-2.25-.19-1.06-.36-2.68,0-4.6,.15-.78,.27-1.32,.55-1.94,1.53-3.38,5.52-4.88,8.9-3.34,1.11,.51,2.02,1.28,2.69,2.21,1.14-.11,2.32,.06,3.43,.57,3.38,1.53,4.88,5.52,3.34,8.9Z"/><path class="cls-3" d="M323.14,405.25c2.97,2.97,7.78,2.97,10.75,0,.98-.98,1.64-2.16,1.97-3.41,1.25-.33,2.43-.99,3.41-1.97,2.97-2.97,2.97-7.78,0-10.75-.54-.54-1.06-.88-1.83-1.35-1.88-1.15-3.68-1.62-4.87-1.84-.62-.16-1.48-.36-2.51-.55-5.61-1.04-9.08-1.68-10.75,0-1.72,1.72-1.03,5.35,0,10.75,.19,.99,.39,1.82,.54,2.41,.26,1.21,.78,2.99,1.95,4.87,.52,.84,.84,1.32,1.35,1.83Z"/><path class="cls-3" d="M442.99,288.6c-.97-.43-2.1-.29-2.96,.35-24.15,60.83-85.89,96.35-147.91,90.75l-.41-.04c-.05,.86-.08,1.75-.1,2.66-.02,.84-.02,1.66,0,2.45,64.62,6.19,128.15-30.6,153.07-94.03-.02-.13-.32-1.54-1.69-2.14Z"/></g><g><path class="cls-3" d="M143.82,270.18c1.24,.62,2.23,1.54,2.94,2.62,1.29-.08,2.62,.17,3.86,.8,3.75,1.89,5.27,6.46,3.38,10.21-.34,.68-.73,1.17-1.32,1.86-1.43,1.69-2.98,2.7-4.05,3.27-.54,.34-1.29,.8-2.21,1.31-5,2.75-8.09,4.44-10.21,3.38-2.17-1.09-2.66-4.75-3.38-10.21-.13-1-.2-1.85-.25-2.46-.14-1.23-.2-3.08,.32-5.24,.23-.96,.38-1.51,.71-2.16,1.89-3.75,6.46-5.27,10.21-3.38Zm-9.3,4.2c-.29,.57-.42,1.06-.62,1.91-.46,1.9-.4,3.54-.28,4.63,.04,.54,.1,1.29,.22,2.18,.64,4.82,1.07,8.06,2.99,9.02,1.87,.94,4.6-.56,9.02-2.99,.81-.45,1.48-.85,1.96-1.15,.94-.51,2.32-1.4,3.58-2.89,.51-.61,.86-1.04,1.16-1.64,1.67-3.32,.33-7.36-2.99-9.02-1.09-.55-2.27-.77-3.41-.7-.63-.96-1.5-1.76-2.6-2.31-3.32-1.67-7.36-.33-9.02,2.99Z"/><path class="cls-3" d="M153.28,293.26c1.32,.42,2.45,1.16,3.32,2.11,1.26-.28,2.61-.25,3.93,.17,4.01,1.26,6.23,5.53,4.97,9.54-.23,.73-.54,1.28-1,2.05-1.14,1.89-2.51,3.14-3.47,3.88-.48,.43-1.15,1-1.98,1.64-4.5,3.51-7.28,5.68-9.54,4.97-2.32-.73-3.39-4.27-4.97-9.54-.29-.97-.5-1.79-.64-2.39-.33-1.19-.69-3.01-.52-5.22,.07-.98,.13-1.55,.35-2.25,1.26-4.01,5.53-6.23,9.54-4.97Zm-8.5,5.64c-.19,.61-.25,1.12-.31,1.98-.15,1.95,.17,3.56,.46,4.61,.12,.53,.31,1.26,.56,2.11,1.4,4.66,2.35,7.78,4.4,8.43,2,.63,4.45-1.29,8.43-4.4,.73-.57,1.32-1.08,1.75-1.45,.85-.66,2.06-1.76,3.07-3.43,.41-.68,.68-1.16,.88-1.81,1.11-3.54-.85-7.31-4.4-8.43-1.17-.37-2.36-.4-3.48-.15-.77-.84-1.77-1.5-2.94-1.87-3.54-1.11-7.31,.85-8.43,4.4Z"/><path class="cls-3" d="M166.95,315.75c1.38,.1,2.65,.56,3.72,1.29,1.16-.57,2.48-.84,3.87-.74,4.19,.3,7.34,3.94,7.04,8.13-.06,.76-.23,1.36-.5,2.22-.67,2.1-1.72,3.63-2.48,4.58-.37,.52-.89,1.24-1.54,2.06-3.57,4.45-5.77,7.21-8.13,7.04-2.42-.17-4.28-3.37-7.04-8.13-.51-.87-.9-1.63-1.17-2.18-.6-1.08-1.36-2.77-1.71-4.96-.15-.97-.23-1.54-.18-2.27,.3-4.19,3.94-7.34,8.13-7.04Zm-6.98,7.45c-.05,.64,.02,1.14,.15,2,.31,1.93,.99,3.43,1.51,4.38,.24,.49,.59,1.15,1.04,1.93,2.44,4.21,4.08,7.03,6.22,7.19,2.09,.15,4.03-2.28,7.19-6.22,.58-.72,1.04-1.35,1.36-1.82,.67-.83,1.6-2.19,2.19-4.04,.24-.76,.39-1.29,.44-1.96,.27-3.7-2.52-6.92-6.22-7.19-1.22-.09-2.39,.16-3.42,.66-.94-.64-2.07-1.05-3.29-1.14-3.7-.27-6.92,2.52-7.19,6.22Z"/><path class="cls-3" d="M185.19,334.14c1.38-.17,2.71,.04,3.9,.55,1.03-.78,2.27-1.31,3.65-1.48,4.17-.52,7.96,2.45,8.48,6.61,.09,.76,.04,1.38-.06,2.28-.25,2.19-.98,3.9-1.55,4.97-.26,.59-.63,1.39-1.12,2.32-2.64,5.06-4.26,8.19-6.61,8.48-2.41,.3-4.85-2.48-8.48-6.61-.67-.76-1.2-1.42-1.57-1.91-.79-.95-1.88-2.45-2.64-4.53-.34-.92-.52-1.47-.61-2.19-.52-4.17,2.45-7.96,6.61-8.48Zm-5.4,8.66c.08,.64,.24,1.12,.54,1.93,.68,1.84,1.63,3.17,2.33,4,.33,.43,.8,1.02,1.39,1.69,3.21,3.66,5.36,6.11,7.49,5.84,2.08-.26,3.52-3.02,5.84-7.49,.43-.82,.76-1.53,.99-2.05,.5-.95,1.15-2.45,1.37-4.39,.09-.79,.14-1.34,.05-2.01-.46-3.68-3.81-6.3-7.49-5.84-1.22,.15-2.31,.62-3.22,1.31-1.05-.45-2.23-.63-3.45-.48-3.68,.46-6.3,3.81-5.84,7.49Z"/><path class="cls-3" d="M115.58,311.82c-4.12-.84-6.77-4.86-5.93-8.97,.28-1.36,.9-2.55,1.76-3.52-.41-1.23-.52-2.57-.24-3.93,.84-4.12,4.86-6.77,8.97-5.93,.75,.15,1.32,.4,2.14,.78,2,.93,3.38,2.17,4.22,3.05,.47,.43,1.11,1.04,1.84,1.8,3.96,4.11,6.4,6.65,5.93,8.97-.48,2.38-3.89,3.81-8.97,5.93-.93,.39-1.73,.68-2.31,.88-1.15,.45-2.92,1-5.14,1.06-.98,.03-1.56,.03-2.27-.12Z"/><path class="cls-3" d="M132.79,339.95c-4.19-.23-7.4-3.82-7.17-8.02,.08-1.38,.52-2.66,1.23-3.74-.58-1.15-.88-2.47-.81-3.85,.23-4.19,3.82-7.4,8.02-7.17,.76,.04,1.37,.21,2.23,.46,2.11,.64,3.66,1.66,4.62,2.41,.53,.36,1.25,.87,2.08,1.51,4.51,3.49,7.3,5.65,7.17,8.02-.13,2.43-3.3,4.33-8.02,7.17-.86,.52-1.61,.92-2.16,1.21-1.07,.61-2.75,1.41-4.93,1.79-.97,.17-1.54,.25-2.26,.21Z"/><path class="cls-3" d="M132.95,339.78c-4.19-.23-7.4-3.82-7.17-8.02,.08-1.38,.52-2.66,1.23-3.74-.58-1.15-.88-2.47-.81-3.85,.23-4.19,3.82-7.4,8.02-7.17,.76,.04,1.37,.21,2.23,.46,2.11,.64,3.66,1.66,4.62,2.41,.53,.36,1.25,.87,2.08,1.51,4.51,3.49,7.3,5.65,7.17,8.02-.13,2.43-3.3,4.33-8.02,7.17-.86,.52-1.61,.92-2.16,1.21-1.07,.61-2.75,1.41-4.93,1.79-.97,.17-1.54,.25-2.26,.21Z"/><path class="cls-3" d="M156.14,364.57c-4.16,.6-8.02-2.28-8.62-6.43-.2-1.37-.02-2.71,.46-3.91-.8-1.01-1.36-2.24-1.56-3.62-.6-4.16,2.28-8.02,6.43-8.62,.76-.11,1.38-.07,2.28,.01,2.2,.2,3.92,.9,5,1.44,.59,.25,1.4,.6,2.34,1.07,5.12,2.53,8.28,4.09,8.62,6.43,.35,2.41-2.37,4.9-6.43,8.62-.74,.68-1.4,1.23-1.88,1.61-.93,.81-2.41,1.93-4.47,2.74-.92,.36-1.46,.55-2.18,.66Z"/><path class="cls-3" d="M183.84,383.99c-3.95,1.42-8.31-.63-9.73-4.58-.47-1.3-.56-2.65-.33-3.92-.99-.83-1.78-1.93-2.25-3.23-1.42-3.95,.63-8.31,4.58-9.73,.72-.26,1.34-.35,2.23-.44,2.19-.24,4.02,.1,5.19,.41,.63,.12,1.49,.31,2.51,.58,5.52,1.45,8.93,2.35,9.73,4.58,.83,2.29-1.35,5.28-4.58,9.73-.59,.82-1.12,1.48-1.52,1.95-.75,.98-1.98,2.37-3.84,3.58-.83,.53-1.32,.83-2,1.08Z"/><path class="cls-3" d="M209.43,348.63c1.34-.34,2.69-.3,3.94,.05,.92-.9,2.09-1.58,3.43-1.93,4.07-1.03,8.21,1.43,9.24,5.5,.19,.74,.21,1.37,.23,2.27,.03,2.21-.48,3.99-.91,5.13-.18,.61-.45,1.45-.82,2.44-1.98,5.35-3.2,8.66-5.5,9.24-2.36,.6-5.12-1.85-9.24-5.5-.76-.67-1.36-1.26-1.8-1.7-.91-.84-2.17-2.2-3.19-4.16-.45-.87-.7-1.39-.88-2.09-1.03-4.07,1.43-8.21,5.5-9.24Zm-4.27,9.27c.16,.62,.38,1.08,.78,1.85,.9,1.74,2.02,2.94,2.82,3.68,.38,.39,.92,.91,1.59,1.5,3.64,3.22,6.09,5.39,8.17,4.86,2.03-.52,3.11-3.44,4.86-8.17,.32-.87,.56-1.61,.72-2.15,.38-1,.83-2.58,.81-4.53-.01-.8-.03-1.35-.2-2-.91-3.6-4.57-5.77-8.17-4.86-1.19,.3-2.22,.9-3.03,1.7-1.1-.31-2.29-.35-3.48-.05-3.6,.91-5.77,4.57-4.86,8.17Z"/><path class="cls-3" d="M216.01,398.08c-3.54,2.25-8.24,1.21-10.5-2.33-.74-1.17-1.13-2.46-1.18-3.76-1.15-.6-2.16-1.49-2.9-2.66-2.25-3.54-1.21-8.24,2.33-10.5,.65-.41,1.23-.63,2.08-.92,2.09-.72,3.94-.79,5.15-.74,.64-.02,1.52-.02,2.57,.01,5.7,.21,9.23,.34,10.5,2.33,1.31,2.05-.16,5.44-2.33,10.5-.4,.93-.77,1.69-1.05,2.24-.51,1.12-1.41,2.75-2.96,4.33-.69,.7-1.1,1.1-1.71,1.49Z"/><path class="cls-3" d="M234.65,357.95c1.27-.55,2.61-.73,3.89-.59,.77-1.04,1.81-1.9,3.08-2.46,3.85-1.68,8.33,.08,10.01,3.93,.31,.7,.43,1.31,.59,2.2,.38,2.17,.17,4.01-.07,5.21-.08,.64-.21,1.51-.41,2.54-1.09,5.6-1.76,9.06-3.93,10.01-2.23,.97-5.35-1-10.01-3.93-.85-.54-1.55-1.02-2.05-1.38-1.03-.68-2.5-1.82-3.82-3.59-.59-.79-.92-1.26-1.21-1.92-1.68-3.85,.08-8.33,3.93-10.01Zm-2.72,9.84c.26,.59,.55,1,1.07,1.7,1.17,1.57,2.47,2.57,3.38,3.18,.44,.32,1.06,.75,1.81,1.22,4.12,2.59,6.88,4.33,8.85,3.47,1.92-.84,2.51-3.9,3.47-8.85,.18-.91,.29-1.68,.36-2.24,.21-1.05,.4-2.68,.06-4.6-.14-.78-.25-1.32-.52-1.94-1.48-3.4-5.44-4.96-8.85-3.47-1.12,.49-2.04,1.25-2.72,2.17-1.14-.13-2.32,.03-3.44,.52-3.4,1.48-4.96,5.44-3.47,8.85Z"/><path class="cls-3" d="M247.95,405.06c-3.01,2.93-7.83,2.86-10.75-.16-.97-.99-1.6-2.18-1.92-3.44-1.24-.35-2.42-1.02-3.38-2.02-2.93-3.01-2.86-7.83,.16-10.75,.55-.53,1.08-.87,1.85-1.33,1.9-1.13,3.7-1.57,4.9-1.77,.62-.15,1.49-.33,2.52-.51,5.63-.95,9.1-1.54,10.75,.16,1.7,1.74,.95,5.36-.16,10.75-.2,.99-.41,1.81-.57,2.41-.27,1.2-.82,2.98-2.02,4.84-.53,.83-.86,1.3-1.38,1.81Z"/><path class="cls-3" d="M129.84,286.66c.97-.41,2.1-.26,2.95,.4,23.25,61.19,84.45,97.62,146.55,92.93l.41-.04c.04,.86,.06,1.75,.06,2.66,0,.84,0,1.66-.03,2.45-64.7,5.23-127.68-32.5-151.66-96.29,.03-.13,.34-1.53,1.72-2.12Z"/></g></g><text class="cls-2" transform="translate(34.3 545.39)"><tspan x="0" y="0">Eternal Lovers</tspan></text></g></svg>