<svg width="30" height="30" viewBox="0 0 30 30" fill="none" xmlns="http://www.w3.org/2000/svg">
<path d="M5 12.5C5 7.78625 5 5.42875 6.465 3.965C7.93 2.50125 10.2863 2.5 15 2.5H16.875C21.5887 2.5 23.9462 2.5 25.41 3.965C26.8737 5.43 26.875 7.78625 26.875 12.5V17.5C26.875 22.2137 26.875 24.5712 25.41 26.035C23.945 27.4987 21.5887 27.5 16.875 27.5H15C10.2863 27.5 7.92875 27.5 6.465 26.035C5.00125 24.57 5 22.2137 5 17.5V12.5Z" stroke="black" stroke-linecap="round" stroke-linejoin="round"/>
<path d="M12.25 14.9675C11.7163 14.0375 11.4588 13.2787 11.3038 12.5087C11.0738 11.3712 11.6 10.2587 12.47 9.54875C12.8387 9.24875 13.26 9.35125 13.4775 9.7425L13.9688 10.6237C14.3575 11.3212 14.5525 11.6713 14.5138 12.0413C14.4763 12.4113 14.2138 12.7125 13.6888 13.3162L12.25 14.9675ZM12.25 14.9675C13.3751 16.8955 14.9795 18.4999 16.9075 19.625M16.9075 19.625C17.8375 20.1587 18.5963 20.4163 19.3663 20.5713C20.5038 20.8013 21.6163 20.275 22.3263 19.405C22.6263 19.0363 22.5237 18.615 22.1325 18.3975L21.2525 17.9062C20.5525 17.5175 20.2037 17.3225 19.8337 17.3612C19.4637 17.3987 19.1625 17.6612 18.5588 18.1862L16.9075 19.625ZM6.25 7.5H3.125M6.25 15H3.125M6.25 22.5H3.125" stroke="black" stroke-linecap="round" stroke-linejoin="round"/>
</svg>
