<svg width="25" height="25" viewBox="0 0 25 25" fill="none" xmlns="http://www.w3.org/2000/svg">
<path d="M20.75 9.53891L18.755 20.8849C18.6736 21.3483 18.4315 21.7681 18.0712 22.0706C17.7109 22.3731 17.2555 22.5389 16.785 22.5389H8.715C8.24454 22.5389 7.78913 22.3731 7.42882 22.0706C7.06852 21.7681 6.82639 21.3483 6.745 20.8849L4.75 9.53891" fill="black"/>
<path d="M21.75 6.53891H16.125M16.125 6.53891V4.53891C16.125 4.00848 15.9143 3.49977 15.5392 3.1247C15.1641 2.74962 14.6554 2.53891 14.125 2.53891H11.375C10.8446 2.53891 10.3359 2.74962 9.96079 3.1247C9.58571 3.49977 9.375 4.00848 9.375 4.53891V6.53891M16.125 6.53891H9.375M3.75 6.53891H9.375M20.75 9.53891L18.755 20.8849C18.6736 21.3483 18.4315 21.7681 18.0712 22.0706C17.7109 22.3731 17.2555 22.5389 16.785 22.5389H8.715C8.24454 22.5389 7.78913 22.3731 7.42882 22.0706C7.06852 21.7681 6.82639 21.3483 6.745 20.8849L4.75 9.53891H20.75Z" stroke="black" stroke-width="1.5" stroke-linecap="round" stroke-linejoin="round"/>
</svg>
