<svg width="45" height="45" viewBox="0 0 45 45" fill="none" xmlns="http://www.w3.org/2000/svg">
<path d="M8.655 35.625C7.79125 35.625 7.07063 35.3363 6.49313 34.7588C5.91563 34.1812 5.62625 33.46 5.625 32.595V12.405C5.625 11.5413 5.91438 10.8206 6.49313 10.2431C7.07188 9.66562 7.79187 9.37625 8.65312 9.375H36.3469C37.2094 9.375 37.9294 9.66437 38.5069 10.2431C39.0844 10.8219 39.3737 11.5425 39.375 12.405V32.5969C39.375 33.4594 39.0856 34.18 38.5069 34.7588C37.9281 35.3375 37.2081 35.6262 36.3469 35.625H8.655ZM22.5 22.7175L7.5 12.9094V32.5969C7.5 32.9331 7.60812 33.2094 7.82437 33.4256C8.04062 33.6419 8.3175 33.75 8.655 33.75H36.3469C36.6831 33.75 36.9594 33.6419 37.1756 33.4256C37.3919 33.2094 37.5 32.9325 37.5 32.595V12.9075L22.5 22.7175ZM22.5 20.625L36.9225 11.25H8.0775L22.5 20.625ZM7.5 12.9094V11.25V32.5969C7.5 32.9331 7.60812 33.2094 7.82437 33.4256C8.04062 33.6419 8.3175 33.75 8.655 33.75H7.5V12.9094Z" fill="black"/>
</svg>
