<svg width="30" height="30" viewBox="0 0 30 30" fill="none" xmlns="http://www.w3.org/2000/svg">
<path d="M15.4687 14.0625V20.625C15.4687 20.7493 15.4194 20.8685 15.3314 20.9564C15.2435 21.0443 15.1243 21.0937 15 21.0937C14.8757 21.0937 14.7564 21.0443 14.6685 20.9564C14.5806 20.8685 14.5312 20.7493 14.5312 20.625V14.0625C14.5312 13.9382 14.5806 13.8189 14.6685 13.731C14.7564 13.6431 14.8757 13.5937 15 13.5937C15.1243 13.5937 15.2435 13.6431 15.3314 13.731C15.4194 13.8189 15.4687 13.9382 15.4687 14.0625ZM21.2344 13.5937C21.1731 13.5876 21.1113 13.5935 21.0523 13.6113C20.9934 13.629 20.9385 13.6582 20.8908 13.6972C20.8432 13.7362 20.8037 13.7841 20.7745 13.8383C20.7454 13.8926 20.7272 13.952 20.7211 14.0133L20.0648 20.5758C20.058 20.6374 20.0635 20.6997 20.0809 20.7592C20.0984 20.8187 20.1275 20.8741 20.1665 20.9223C20.2055 20.9705 20.2537 21.0104 20.3083 21.0399C20.3628 21.0693 20.4227 21.0876 20.4844 21.0937H20.5324C20.649 21.0943 20.7617 21.0514 20.8483 20.9734C20.935 20.8954 20.9895 20.7879 21.0012 20.6719L21.6574 14.1094C21.6639 14.0477 21.658 13.9853 21.6402 13.9259C21.6224 13.8664 21.593 13.8111 21.5536 13.7632C21.5143 13.7152 21.4658 13.6755 21.411 13.6464C21.3562 13.6174 21.2961 13.5994 21.2344 13.5937ZM8.76562 13.5937C8.70437 13.5999 8.64493 13.618 8.5907 13.6472C8.53647 13.6763 8.4885 13.7158 8.44955 13.7635C8.41059 13.8111 8.3814 13.866 8.36365 13.925C8.3459 13.9839 8.33993 14.0458 8.34609 14.107L9.00234 20.6695C9.014 20.7855 9.06848 20.8931 9.15516 20.9711C9.24184 21.0491 9.35448 21.092 9.47109 21.0914H9.51913C9.58038 21.0852 9.63982 21.0671 9.69405 21.038C9.74828 21.0088 9.79625 20.9693 9.8352 20.9216C9.87416 20.874 9.90335 20.8191 9.9211 20.7602C9.93885 20.7012 9.94482 20.6394 9.93866 20.5781L9.28241 14.0156C9.27656 13.9538 9.2585 13.8938 9.22928 13.8391C9.20006 13.7843 9.16025 13.7359 9.11218 13.6967C9.0641 13.6574 9.00871 13.6281 8.94922 13.6104C8.88973 13.5928 8.82732 13.5871 8.76562 13.5937ZM27.6562 10.3746L25.8855 23.6238C25.8404 23.9614 25.6743 24.2712 25.418 24.4955C25.1618 24.7199 24.8328 24.8436 24.4922 24.8437H5.5078C5.1672 24.8436 4.83822 24.7199 4.58196 24.4955C4.3257 24.2712 4.15958 23.9614 4.11445 23.6238L2.34374 10.3746C2.33567 10.3081 2.34196 10.2406 2.36218 10.1767C2.38239 10.1129 2.41607 10.054 2.46093 10.0043C2.50475 9.95407 2.55877 9.91377 2.61939 9.88609C2.68002 9.8584 2.74585 9.84397 2.81249 9.84373H8.22421L14.6484 2.50428C14.6924 2.4544 14.7465 2.41446 14.8071 2.38709C14.8677 2.35973 14.9335 2.34558 15 2.34558C15.0665 2.34558 15.1322 2.35973 15.1929 2.38709C15.2535 2.41446 15.3076 2.4544 15.3516 2.50428L21.7758 9.84373H27.1875C27.2541 9.84397 27.32 9.8584 27.3806 9.88609C27.4412 9.91377 27.4952 9.95407 27.5391 10.0043C27.5839 10.054 27.6176 10.1129 27.6378 10.1767C27.658 10.2406 27.6643 10.3081 27.6562 10.3746ZM9.47109 9.84373H20.5289L15 3.52381L9.47109 9.84373ZM26.6519 10.7812H3.34804L5.03905 23.4996C5.05419 23.6129 5.11019 23.7167 5.19651 23.7916C5.28283 23.8665 5.39353 23.9072 5.5078 23.9062H24.4922C24.6065 23.9072 24.7172 23.8665 24.8035 23.7916C24.8898 23.7167 24.9458 23.6129 24.9609 23.4996L26.6519 10.7812Z" fill="black"/>
</svg>
