<svg width="45" height="45" viewBox="0 0 45 45" fill="none" xmlns="http://www.w3.org/2000/svg">
<path d="M42.1289 16.6011C42.1289 28.9058 23.8846 38.8655 23.1076 39.2769C22.9028 39.387 22.6739 39.4447 22.4414 39.4447C22.2089 39.4447 21.98 39.387 21.7752 39.2769C20.9982 38.8655 2.75391 28.9058 2.75391 16.6011C2.75716 13.7116 3.90643 10.9415 5.94958 8.89831C7.99273 6.85516 10.7629 5.70589 13.6523 5.70264C17.2822 5.70264 20.4604 7.26357 22.4414 9.90205C24.4225 7.26357 27.6006 5.70264 31.2305 5.70264C34.1199 5.70589 36.8901 6.85516 38.9332 8.89831C40.9764 10.9415 42.1256 13.7116 42.1289 16.6011Z" fill="#D59CF8"/>
</svg>
