<svg width="30" height="30" viewBox="0 0 30 30" fill="none" xmlns="http://www.w3.org/2000/svg">
<path d="M20.8594 5.15625C18.3469 5.15625 16.1812 6.35039 15 8.32852C13.8188 6.35039 11.6531 5.15625 9.14062 5.15625C7.33865 5.15842 5.6111 5.87522 4.33691 7.14941C3.06272 8.4236 2.34592 10.1511 2.34375 11.9531C2.34375 15.3035 4.45312 18.8051 8.60156 22.3582C10.5171 23.9881 12.5852 25.4295 14.7773 26.6625C14.8457 26.6994 14.9223 26.7188 15 26.7188C15.0777 26.7188 15.1542 26.6994 15.2227 26.6625C17.4148 25.4295 19.4829 23.9881 21.3984 22.3582C25.5469 18.8051 27.6562 15.3035 27.6562 11.9531C27.6541 10.1511 26.9373 8.4236 25.6631 7.14941C24.3889 5.87522 22.6614 5.15842 20.8594 5.15625ZM15 25.7133C13.3594 24.7758 3.28125 18.7582 3.28125 11.9531C3.28311 10.3997 3.90103 8.91042 4.99948 7.81198C6.09792 6.71353 7.58719 6.09561 9.14062 6.09375C11.6145 6.09375 13.6934 7.41914 14.5664 9.55195C14.6017 9.63793 14.6618 9.71146 14.739 9.76321C14.8162 9.81496 14.9071 9.84259 15 9.84259C15.0929 9.84259 15.1838 9.81496 15.261 9.76321C15.3382 9.71146 15.3983 9.63793 15.4336 9.55195C16.3066 7.41914 18.3855 6.09375 20.8594 6.09375C22.4128 6.09561 23.9021 6.71353 25.0005 7.81198C26.099 8.91042 26.7169 10.3997 26.7188 11.9531C26.7188 18.75 16.6406 24.7805 15 25.7133Z" fill="black"/>
</svg>
