<svg width="46" height="46" viewBox="0 0 46 46" fill="none" xmlns="http://www.w3.org/2000/svg">
<path d="M32.2305 8.05078C28.4617 8.05078 25.2133 9.84199 23.4414 12.8092C21.6695 9.84199 18.4211 8.05078 14.6523 8.05078C11.9494 8.05404 9.35805 9.12923 7.44677 11.0405C5.53548 12.9518 4.46029 15.5431 4.45703 18.2461C4.45703 23.2717 7.62109 28.524 13.8438 33.8537C16.717 36.2985 19.8193 38.4606 23.1074 40.3102C23.21 40.3655 23.3248 40.3945 23.4414 40.3945C23.558 40.3945 23.6728 40.3655 23.7754 40.3102C27.0635 38.4606 30.1658 36.2985 33.0391 33.8537C39.2617 28.524 42.4258 23.2717 42.4258 18.2461C42.4225 15.5431 41.3473 12.9518 39.436 11.0405C37.5248 9.12923 34.9334 8.05404 32.2305 8.05078ZM23.4414 38.8863C20.9805 37.4801 5.86328 28.4537 5.86328 18.2461C5.86607 15.9159 6.79296 13.682 8.44062 12.0344C10.0883 10.3867 12.3222 9.45982 14.6523 9.45703C18.3631 9.45703 21.4814 11.4451 22.791 14.6443C22.844 14.7733 22.9341 14.8836 23.0499 14.9612C23.1657 15.0389 23.302 15.0803 23.4414 15.0803C23.5808 15.0803 23.7171 15.0389 23.8329 14.9612C23.9487 14.8836 24.0388 14.7733 24.0918 14.6443C25.4014 11.4451 28.5197 9.45703 32.2305 9.45703C34.5606 9.45982 36.7945 10.3867 38.4422 12.0344C40.0899 13.682 41.0167 15.9159 41.0195 18.2461C41.0195 28.4414 25.9023 37.4871 23.4414 38.8863Z" fill="black"/>
</svg>
