<svg width="88" height="80" viewBox="0 0 88 80" fill="none" xmlns="http://www.w3.org/2000/svg">
<path d="M31.6926 31.595C30.8131 31.93 31.9259 32.515 32.5415 32.5183C32.8216 32.5526 33.1064 32.5231 33.3714 32.4323C33.6364 32.3416 33.8737 32.1923 34.0627 31.9974C34.2518 31.8026 34.3869 31.5679 34.4565 31.3137C34.526 31.0595 34.5279 30.7934 34.462 30.5383C33.911 29.0966 31.3085 28.5166 29.2802 28.9716C26.3564 29.63 25.2292 31.8716 26.3402 33.6366C27.7977 35.9566 32.1718 36.83 35.6108 35.855C39.8897 34.6433 41.4728 31.2516 39.5595 28.5933C37.262 25.405 31.1056 24.24 26.2972 25.73C20.6792 27.4716 18.642 32.0083 21.3523 35.54C24.461 39.5866 32.3908 41.0433 38.5418 39.0416C45.4879 36.7833 47.9738 31.1083 44.472 26.72C40.5682 21.8216 30.8831 20.0766 23.4038 22.5833C15.1438 25.3516 12.2128 32.1516 16.4936 37.3933C21.1836 43.1333 32.6115 45.1633 41.4064 42.1566C50.9677 38.885 54.342 30.9666 49.2859 24.8833C43.8169 18.3066 30.6587 15.99 20.5626 19.4966C9.70358 23.2666 5.88948 32.2966 11.7174 39.215C15.4238 43.6166 22.4759 46.57 30.1974 47.0616" stroke="black" stroke-width="2" stroke-linecap="round" stroke-linejoin="round"/>
<path d="M30.1974 47.0617H79V62.1333H30.0718C18.1933 62.1333 9.00897 54.7833 9.00897 45.1783V31.9917M18.1377 58.93V55.1633M24.2241 61.1917V53.655M30.3105 62.1333V58.3667M36.3969 62.1333V54.5966M42.4815 62.1333V58.3667M48.5697 62.1333V54.5966M54.6544 62.1333V58.3667M66.8272 62.1333V58.3667M60.7426 62.1333V54.5966M72.9136 62.1333V54.5966M51.6121 46.8733V30.485" stroke="black" stroke-width="2" stroke-linecap="round" stroke-linejoin="round"/>
</svg>
