<svg width="56" height="70" viewBox="0 0 56 70" fill="none" xmlns="http://www.w3.org/2000/svg">
<path d="M37.7622 8.42375L27.7622 15.0904L17.7622 8.42375M37.7622 8.42375C39.7189 10.1204 44.1956 12.7337 44.4156 15.5771C44.5156 16.8071 44.0022 17.4804 42.9689 18.8271C40.7222 21.7637 38.1622 23.4904 38.1622 28.4237H17.3622C17.3622 23.4937 14.8022 21.7637 12.5556 18.8271C11.5256 17.4804 11.0089 16.8104 11.1056 15.5771C11.3289 12.7337 15.8089 10.1237 17.7622 8.42375M37.7622 8.42375V1.75708M17.7622 8.42375V1.75708M53.9723 54.4504C51.6256 45.4837 45.6489 37.2571 41.6989 32.5471C38.8656 29.1671 36.7756 28.4237 32.3322 28.4237H23.1956C18.7489 28.4237 16.6589 29.1671 13.8256 32.5471C9.87558 37.2571 3.89891 45.4804 1.55224 54.4504C0.118911 59.9237 2.06558 62.9204 7.38558 64.8571C12.1622 66.5971 19.2156 68.4237 27.7622 68.4237C36.3089 68.4237 43.3589 66.5971 48.1389 64.8571C53.4589 62.9237 55.4056 59.9237 53.9723 54.4504Z" stroke="black" stroke-width="2" stroke-linecap="round" stroke-linejoin="round"/>
<path d="M34.4289 45.0905C34.4289 45.0905 41.0956 55.0905 41.0956 66.7571M21.0956 45.0905C21.0956 45.0905 14.4289 55.0905 14.4289 66.7571" stroke="black" stroke-width="1.5" stroke-linecap="round" stroke-linejoin="round"/>
</svg>
